<svg version="1" xmlns="http://www.w3.org/2000/svg" width="346.667" height="346.667" viewBox="0 0 260.000000 260.000000"><path d="M90 2c0 .5-.8 1-1.9 1C85.3 3 79 5.9 79 7.2c0 .6-.7.4-1.8-.5-1.4-1.3-2.1-1.4-3-.5-.8.8-1.5.8-2.6-.1-1.1-1-1.9-.7-3.8 1.2-2.1 2.1-3.1 2.4-7.5 2-4.5-.5-5.1-.3-5.6 1.7-.4 1.5-1.1 2.1-2.1 1.7-.9-.4-1.6-.2-1.6.3 0 .6-1.1 1-2.5 1-1.8 0-2.3.4-1.9 1.5.5 1.1-.1 1.5-2.5 1.5s-3.4.7-4.6 3C38 22.8 35 24.2 35 22c0-.6-.4-1-.9-1s-.8 1.4-.6 3c.3 2.4.1 3-1.2 2.8-1.1-.2-1.7.6-2 2.7-.5 3.7-.6 3.7-3.9 3.7-1.8 0-2.8.7-3.2 2-.3 1.3-1 1.7-2.3 1.3-1.4-.5-1.7-.2-1.3.9.4 1.1.1 1.6-1 1.6-1 0-1.5.8-1.3 2.2.1 1.7-.3 2.2-1.5 2-3.6-.6-2.3 9.1 1.8 13.2 2 1.9 2.2 2.5.9 3-3 1.1-.3 7.6 3.2 7.6 1.2 0 2.5 2.8 1.9 3.9-.9 1.4 5.5 1.1 9.1-.4 2.1-.9 5.4-3.1 7.3-5 4-3.9 10.3-6.8 12.9-6 1.2.3 2.5 3.2 4.1 8.8 5.4 18.5 11.3 25.9 21.3 26.3 3.2.1 5.4.7 5.9 1.5.4.8 3.8 7.7 7.6 15.4 7.1 14.3 9.3 18.5 13.5 25.2 1.3 2.1 2.6 4.3 3 4.9.4.8-.7.7-3.6-.2-2.3-.7-9.1-2.7-15.2-4.4-6-1.7-12.3-3.8-14-4.5-1.6-.7-7.5-3.2-13-5.5-20.6-8.6-37.7-18.9-46.6-28.2-5-5.3-5.9-5.7-5.9-2.9 0 4.4 18.1 20.9 36 32.8 15.9 10.5 40 21 54.5 23.7 5.8 1.1 9.4 1.7 12.9 2.1 2.1.2 4 .6 4.1.7 3.4 5.5 16.8 22.9 23 29.8 7.2 8.1 22.9 23.5 29.5 29 3.6 3 6.7 5.7 7 6 1.5 1.7 16.7 12.5 24 17.2 17.4 11.2 41.4 22.8 47.1 22.8 2.4 0 2.9-.4 2.9-2.3 0-2-1.1-2.9-6.7-5.2-10.1-4.1-34.2-16.6-36.8-19-1.3-1.3-3.7-6.7-6-13.6-2.1-6.3-5.8-16.4-8.3-22.4-6.3-15.5-7.8-22.8-7.7-36 .2-11.5 2.1-21.2 5.6-28.5 1.1-2.3 1.9-4.9 1.6-5.8-.5-2.4-7 4.6-10.3 11-5.4 10.7-8 28.8-6 41.8 1.6 10 4.8 24.9 6.7 30.9 1.1 3.5 1.9 6.5 1.7 6.6-.6.6-19.1-15.8-27.7-24.5-10.9-11-24.1-26.7-24.1-28.6 0-2.4 7.9-33.1 9.7-37.7.9-2.3 3.6-7.4 6.1-11.2 11.6-18.1 16.5-33.2 13.2-41-1-2.4-1.5-1.2-2.5 5.5-1 7.1-6.9 18-13.1 24.1-3 3-6.9 7.3-8.5 9.7-5.2 7.3-9.4 20.4-11.5 36.2-.3 2.5-.8 4.7-1 4.9-.5.6-14.7-21.6-20.9-32.8-3.2-5.8-7.8-14.7-10.2-20l-4.4-9.5 3.1-2.4c7.4-5.8 9.5-18.1 5.1-29.7-3.1-8.2-3.7-13.9-1.7-17 1.4-2.1 1.9-2.3 4.8-1.4 4.9 1.4 10.9 1 14.7-.9 4.3-2.1 8.7-7.7 9.6-12 .6-2.8.4-3.2-1.4-3.2-1.1 0-2.2-.9-2.6-2.1-.6-1.7-.9-1.9-1.6-.8-.5.8-.9 1.2-1 .9 0-.3-.2-1.4-.4-2.5s-.7-3.5-1-5.3c-.4-2.3-1.1-3.2-2.3-3-1.6.3-1.8-.1-2.1-3.8-.1-1.1-.9-1.4-3.1-1-1.6.2-3 0-3-.5 0-.6-.5-.7-1-.4-.6.4-2-.5-3.1-1.9-2.4-3-3.9-3.3-3.9-.9-.1 1.7-.2 1.7-1.5-.1-.7-1-1.8-1.5-2.3-1.2-.5.3-1.5-.1-2.2-.9-1.4-1.7-3-2-3-.5z"/></svg>